<svg xmlns="http://www.w3.org/2000/svg" viewBox="0 0 800 500" width="800" height="500">
  <!-- IDE Preview Screenshot -->
  <defs>
    <linearGradient id="bg" x1="0%" y1="0%" x2="0%" y2="100%">
      <stop offset="0%" style="stop-color:#1e1e1e;stop-opacity:1" />
      <stop offset="100%" style="stop-color:#252526;stop-opacity:1" />
    </linearGradient>
  </defs>
  
  <!-- Background -->
  <rect width="800" height="500" fill="url(#bg)"/>
  
  <!-- Activity Bar -->
  <rect x="0" y="0" width="48" height="500" fill="#2d2d30"/>
  <rect x="0" y="0" width="2" height="48" fill="#007acc"/>
  
  <!-- Activity Icons -->
  <circle cx="24" cy="24" r="8" fill="#cccccc"/>
  <circle cx="24" cy="72" r="8" fill="#6a6a6a"/>
  <circle cx="24" cy="120" r="8" fill="#6a6a6a"/>
  
  <!-- Sidebar -->
  <rect x="48" y="0" width="250" height="500" fill="#252526"/>
  <rect x="48" y="0" width="250" height="40" fill="#2d2d30"/>
  <text x="60" y="25" font-family="Arial" font-size="11" fill="#969696" font-weight="600">EXPLORER</text>
  
  <!-- File Tree -->
  <text x="60" y="70" font-family="Arial" font-size="13" fill="#cccccc">📄 index.html</text>
  <text x="60" y="95" font-family="Arial" font-size="13" fill="#cccccc">🎨 style.css</text>
  <text x="60" y="120" font-family="Arial" font-size="13" fill="#cccccc">📜 script.js</text>
  
  <!-- Editor Area -->
  <rect x="298" y="0" width="502" height="35" fill="#252526"/>
  <rect x="298" y="0" width="150" height="35" fill="#1e1e1e"/>
  <rect x="298" y="0" width="150" height="2" fill="#007acc"/>
  <text x="315" y="22" font-family="Arial" font-size="13" fill="#cccccc">📄 index.html</text>
  
  <!-- Code Editor -->
  <rect x="298" y="35" width="502" height="343" fill="#1e1e1e"/>
  
  <!-- Code Lines -->
  <text x="310" y="60" font-family="Courier New" font-size="13" fill="#6a6a6a">1</text>
  <text x="330" y="60" font-family="Courier New" font-size="13" fill="#569cd6">&lt;!DOCTYPE</text>
  <text x="420" y="60" font-family="Courier New" font-size="13" fill="#ce9178">html</text>
  <text x="460" y="60" font-family="Courier New" font-size="13" fill="#569cd6">&gt;</text>
  
  <text x="310" y="80" font-family="Courier New" font-size="13" fill="#6a6a6a">2</text>
  <text x="330" y="80" font-family="Courier New" font-size="13" fill="#569cd6">&lt;html</text>
  <text x="380" y="80" font-family="Courier New" font-size="13" fill="#9cdcfe">lang</text>
  <text x="420" y="80" font-family="Courier New" font-size="13" fill="#cccccc">=</text>
  <text x="435" y="80" font-family="Courier New" font-size="13" fill="#ce9178">"en"</text>
  <text x="470" y="80" font-family="Courier New" font-size="13" fill="#569cd6">&gt;</text>
  
  <text x="310" y="100" font-family="Courier New" font-size="13" fill="#6a6a6a">3</text>
  <text x="330" y="100" font-family="Courier New" font-size="13" fill="#569cd6">&lt;head&gt;</text>
  
  <text x="310" y="120" font-family="Courier New" font-size="13" fill="#6a6a6a">4</text>
  <text x="345" y="120" font-family="Courier New" font-size="13" fill="#569cd6">&lt;title&gt;</text>
  <text x="410" y="120" font-family="Courier New" font-size="13" fill="#cccccc">NovaDev</text>
  <text x="475" y="120" font-family="Courier New" font-size="13" fill="#569cd6">&lt;/title&gt;</text>
  
  <text x="310" y="140" font-family="Courier New" font-size="13" fill="#6a6a6a">5</text>
  <text x="330" y="140" font-family="Courier New" font-size="13" fill="#569cd6">&lt;/head&gt;</text>
  
  <text x="310" y="160" font-family="Courier New" font-size="13" fill="#6a6a6a">6</text>
  <text x="330" y="160" font-family="Courier New" font-size="13" fill="#569cd6">&lt;body&gt;</text>
  
  <text x="310" y="180" font-family="Courier New" font-size="13" fill="#6a6a6a">7</text>
  <text x="345" y="180" font-family="Courier New" font-size="13" fill="#569cd6">&lt;h1&gt;</text>
  <text x="385" y="180" font-family="Courier New" font-size="13" fill="#cccccc">Welcome</text>
  <text x="455" y="180" font-family="Courier New" font-size="13" fill="#569cd6">&lt;/h1&gt;</text>
  
  <!-- Terminal Panel -->
  <rect x="298" y="378" width="502" height="122" fill="#252526"/>
  <rect x="298" y="378" width="502" height="35" fill="#2d2d30"/>
  <text x="310" y="400" font-family="Arial" font-size="11" fill="#cccccc" font-weight="600">TERMINAL</text>
  
  <!-- Terminal Content -->
  <text x="310" y="430" font-family="Courier New" font-size="12" fill="#4ec9b0">$</text>
  <text x="325" y="430" font-family="Courier New" font-size="12" fill="#cccccc">npm start</text>
  <text x="310" y="450" font-family="Courier New" font-size="12" fill="#cccccc">Server running on port 3000</text>
  
  <!-- Status Bar -->
  <rect x="0" y="478" width="800" height="22" fill="#007acc"/>
  <text x="10" y="493" font-family="Arial" font-size="11" fill="#ffffff">main</text>
  <text x="700" y="493" font-family="Arial" font-size="11" fill="#ffffff">Ln 7, Col 12</text>
  
  <!-- Glow effect -->
  <rect x="0" y="0" width="800" height="500" fill="none" stroke="#007acc" stroke-width="2" opacity="0.3"/>
</svg>
